# AST/ASF file generated using VICON BodyLanguage
# -----------------------------------------------
:version 1.10
:name VICON
:units
  mass 1.0
  length 0.45
  angle deg
:documentation
   .ast/.asf automatically generated from VICON data using
   VICON BodyBuilder and BodyLanguage model FoxedUp or BRILLIANT.MOD
:root
   order TX TY TZ RX RY RZ
   axis XYZ
   position 0 0 0  
   orientation 0 0 0 
:bonedata
  begin
     id 1 
     name lhipjoint
     direction 0.440178 -0.822639 0.359871 
     length 2.53113 
     axis 0 0 0  XYZ
  end
  begin
     id 2 
     name lfemur
     direction 0.34202 -0.939693 0  
     length 7.88132  
     axis 0 0 20  XYZ
    dof rx ry rz
    limits (-160.0 20.0)
           (-70.0 70.0)
           (-60.0 70.0)
  end
  begin
     id 3 
     name ltibia
     direction 0.34202 -0.939693 0   
     length 8.43783   
     axis 0 0 20   XYZ
    dof rx
    limits (-10.0 170.0)
  end
  begin
     id 4 
     name lfoot
     direction 0.0886351 -0.243523 0.965837   
     length 2.63414   
     axis -90 7.62852e-016 20   XYZ
    dof rx rz
    limits (-45.0 90.0)
           (-70.0 20.0)
  end
  begin
     id 5 
     name ltoes
     direction 1.53703e-011 -4.21717e-011 1   
     length 1.31427   
     axis -90 7.62852e-016 20   XYZ
    dof rx
    limits (-90.0 20.0)
  end
  begin
     id 6 
     name rhipjoint
     direction -0.399779 -0.839773 0.367367   
     length 2.47948  
     axis 0 0 0  XYZ 
  end
  begin
     id 7 
     name rfemur
     direction -0.34202 -0.939693 0   
     length 7.74806   
     axis 0 0 -20   XYZ
    dof rx ry rz
    limits (-160.0 20.0)
           (-70.0 70.0)
           (-70.0 60.0)
  end
  begin
     id 8 
     name rtibia
     direction -0.34202 -0.939693 0   
     length 8.74432   
     axis 0 0 -20   XYZ
    dof rx
    limits (-10.0 170.0)
 end
 begin
     id 9 
     name rfoot
     direction -0.108514 -0.298139 0.948334   
     length 2.66102  
     axis -90 -7.62852e-016 -20   XYZ
    dof rx rz
    limits (-45.0 90.0)
           (-20.0 70.0)
  end
  begin
     id 10 
     name rtoes
     direction -1.53392e-011 -4.22077e-011 1   
     length 1.31983   
     axis -90 -7.62852e-016 -20   XYZ
    dof rx
    limits (-90.0 20.0)
  end
  begin
     id 11 
     name lowerback
     direction 0.0113257 0.999866 0.0118602   
     length 2.58694   
     axis 0 0 0   XYZ
    dof rx ry rz
    limits (-20.0 45.0)
           (-30.0 30.0)
           (-30.0 30.0)
  end
  begin
     id 12 
     name upperback
     direction -0.0164747 0.995193 -0.0965375   
     length 2.52368   
     axis 0 0 0   XYZ
    dof rx ry rz
    limits (-20.0 45.0)
           (-30.0 30.0)
           (-30.0 30.0)
  end
  begin
     id 13 
     name thorax
     direction -0.0194301 0.99433 -0.104552   
     length 2.56099   
     axis 0 0 0   XYZ
    dof rx ry rz
    limits (-20.0 45.0)
           (-30.0 30.0)
           (-30.0 30.0)
  end
  begin
     id 14 
     name lowerneck
     direction 0.0148543 0.995587 -0.092657   
     length 1.71582   
     axis 0 0 0   XYZ
    dof rx ry rz
    limits (-20.0 45.0)
           (-30.0 30.0)
           (-30.0 30.0)
  end
  begin
     id 15 
     name upperneck
     direction -0.0135467 0.993656 -0.111639   
     length 1.68937   
     axis 0 0 0   XYZ
    dof rx ry rz
    limits (-20.0 45.0)
           (-30.0 30.0)
           (-30.0 30.0)
  end
  begin
     id 16
     name head
     direction -0.00615349 0.999547 -0.029448  
     length 1.7462  
     axis 0 0 0   XYZ
    dof rx ry rz
    limits (-20.0 45.0)
           (-30.0 30.0)
           (-30.0 30.0)
  end
  begin
     id 17 
     name lclavicle
     direction 0.988267 0.149885 0.0293713  
     length 4.47222  
     axis 0 0 0   XYZ
    dof ry rz
    limits (-20.0 10.0)
           (0.0 20.0)
  end
  begin
     id 18 
     name lhumerus
     direction 1 -4.48986e-011 -1.14833e-027   
     length 5.37148   
     axis 180 -30 -90   XYZ
    dof rx ry rz
    limits (-60.0 90.0)
           (-90.0 90.0)
           (-90.0 90.0)
  end
  begin
     id 19
     name lradius
     direction 0.999998 0.00170963 -0.000987055   
     length 3.94212   
     axis 180 -30 -90   XYZ
    dof rx
    limits (-10.0 170.0)
  end
  begin
     id 20
     name lwrist
     direction 0.999998 7.53149e-005 -0.00194706   
     length 1.97106   
     axis 4.65056e-015 90 90   XYZ
    dof ry
    limits (-180.0 0.0)
 end
  begin
     id 21 
     name lhand
     direction 1 -4.48973e-011 -1.31746e-026   
     length 1.17917   
     axis 8.4065e-015 90 90   XYZ
    dof rx rz
    limits (-90.0 90.0)
           (-45.0 45.0)
  end
  begin
     id 22 
     name lfingers
     direction 1 -4.49107e-011 -2.63492e-026   
     length 0.950679   
     axis 1.6813e-014 90 90   XYZ
    dof rx
    limits (0.0 90.0)
  end
  begin
     id 23
     name lthumb
     direction 0.707107 -6.35048e-011 0.707107   
     length 1.36499   
     axis -90 45 2.85299e-015   XYZ
    dof rx rz
    limits (-45.0 45.0)
           (-45.0 45.0)
  end
  begin
     id 24 
     name rclavicle
     direction -0.996699 0.0642895 -0.0495725   
     length 4.62611  
     axis 0 0 0   XYZ 
    dof ry rz
    limits (-10.0 20.0)
           (-20.0 0.0)
  end
  begin
     id 25 
     name rhumerus
     direction -1 -4.48919e-011 -2.41059e-027  
     length 5.4981   
     axis 180 30 90   XYZ
    dof rx ry rz
    limits (-90.0 60.0)
           (-90.0 90.0)
           (-90.0 90.0)
  end
  begin
     id 26 
     name rradius
     direction -0.999999 0.00118101 -0.000681858   
     length 3.48381   
     axis 180 30 90   XYZ
    dof rx
    limits (-10.0 170.0)
  end
  begin
     id 27 
     name rwrist
     direction -0.999999 0.000321823 -0.00132288   
     length 1.7419   
     axis 4.65056e-015 -90 -90   XYZ
    dof ry
    limits (-180.0 0.0)
  end
  begin
     id 28
     name rhand
     direction -1 -4.49022e-011 -1.31746e-026   
     length 1.34932   
     axis 8.4065e-015 -90 -90   XYZ
    dof rx rz
    limits (-90.0 90.0)
           (-45.0 45.0)
  end
  begin
     id 29
     name rfingers
     direction -1 -4.49178e-011 -2.63492e-026   
     length 1.08785   
     axis 1.6813e-014 -90 -90   XYZ
    dof rx
    limits (0.0 90.0)
  end
  begin
     id 30
     name rthumb
     direction -0.707107 -6.34713e-011 0.707107   
     length 1.56195   
     axis -90 -45 -2.85299e-015   XYZ
    dof rx rz
    limits (-45.0 45.0)
           (-45.0 45.0)
  end
:hierarchy
  begin
    root lhipjoint rhipjoint lowerback
    lhipjoint lfemur
    lfemur ltibia
    ltibia lfoot
    lfoot ltoes
    rhipjoint rfemur
    rfemur rtibia
    rtibia rfoot
    rfoot rtoes
    lowerback upperback
    upperback thorax
    thorax lowerneck lclavicle rclavicle
    lowerneck upperneck
    upperneck head
    lclavicle lhumerus
    lhumerus lradius
    lradius lwrist
    lwrist lhand lthumb
    lhand lfingers
    rclavicle rhumerus
    rhumerus rradius
    rradius rwrist
    rwrist rhand rthumb
    rhand rfingers
  end

#!OML:ASF X:\für Bonn\!DataBase\2005_08_10_Bjorn_Final\c3d\bjorn.ASF
:FULLY-SPECIFIED
:DEGREES
16
root 6.78281 19.2854 2.294 -189.011 83.365 -185.719
lowerback 1.00132 1.707 6.30014
upperback 10.1844 2.443 0.282809
thorax 10.5646 1.93344 -2.9691
lowerneck 0.531795 -4.20956 4.90591
upperneck 20.0661 -4.58024 -3.98413
head 5.74303 -1.84336 -2.25856
rclavicle 6.95746e-015 1.03368e-014
rhumerus -15.6345 -11.2885 -86.2627
rradius 28.7899
rwrist 1.06226
rhand -18.8274 13.8807
rfingers 7.12502
rthumb 7.47173 -15.9674
lclavicle 6.95746e-015 1.03368e-014
lhumerus -31.1387 -3.50339 89.9739
lradius 18.7242
lwrist -33.2177
lhand -5.24564 -6.03596
lfingers 7.12502
lthumb 20.5574 22.8956
rfemur -14.4121 -10.9436 17.2465
rtibia 29.4622
rfoot -5.25046 15.2347
rtoes 0.907411
lfemur -15.1821 15.4503 -15.2061
ltibia 49.4554
lfoot -9.38063 -0.859362
ltoes -17.7105
17
root 6.85973 19.2764 2.30942 -189.166 83.4045 -185.929
lowerback 1.25007 1.85617 6.12014
upperback 10.2625 2.68726 0.183275
thorax 10.5245 2.04819 -2.961
lowerneck 0.572673 -4.37066 4.9171
upperneck 19.986 -4.81142 -3.91379
head 5.70263 -1.9513 -2.24456
rclavicle 7.35503e-015 1.11319e-014
rhumerus -15.1832 -10.5514 -86.3888
rradius 29.3585
rwrist 0.599898
rhand -19.0225 14.1126
rfingers 7.12502
rthumb 7.28345 -15.742
lclavicle 7.35503e-015 1.11319e-014
lhumerus -31.2363 -3.66199 89.8579
lradius 18.8145
lwrist -32.8291
lhand -5.51999 -6.3299
lfingers 7.12502
lthumb 20.2937 22.6299
rfemur -14.3674 -11.0532 17.2712
rtibia 29.75
rfoot -5.5919 15.483
rtoes 1.02838
lfemur -15.9547 15.7409 -15.3817
ltibia 48.3251
lfoot -10.0274 -0.715127
ltoes -16.6435
18
root 6.93481 19.2722 2.32461 -189.465 83.4049 -186.244
lowerback 1.53107 1.98112 5.91241
upperback 10.3911 2.90561 0.0804171
thorax 10.5181 2.15243 -2.94377
lowerneck 0.800994 -4.50825 4.9961
upperneck 19.5237 -5.02453 -3.84542
head 5.51 -2.05691 -2.2293
rclavicle 3.24019e-014 -1.43125e-014
rhumerus -14.652 -9.76818 -86.5107
rradius 29.8961
rwrist 0.100854
rhand -19.2199 14.352
rfingers 7.12502
rthumb 7.09289 -15.5091
lclavicle 3.24019e-014 -1.43125e-014
lhumerus -31.1914 -3.67216 89.6762
lradius 18.8692
lwrist -32.6089
lhand -5.75503 -6.65587
lfingers 7.12502
lthumb 20.0678 22.3278
rfemur -14.2343 -11.104 17.2644
rtibia 29.9659
rfoot -5.95358 15.6521
rtoes 1.05965
lfemur -16.6616 15.9342 -15.5475
ltibia 47.1748
lfoot -10.4939 -0.614105
ltoes -15.5874
19
root 7.00903 19.2711 2.3397 -189.808 83.4248 -186.6
lowerback 1.81244 2.0976 5.64915
upperback 10.5305 3.11196 0.0108335
thorax 10.5154 2.24469 -2.8618
lowerneck 1.01854 -4.635 5.01289
upperneck 19.0654 -5.22053 -3.76842
head 5.32399 -2.15867 -2.20021
rclavicle 1.76918e-014 -2.18663e-014
rhumerus -14.1091 -8.98436 -86.5734
rradius 30.4367
rwrist -0.357269
rhand -19.3776 14.6273
rfingers 7.12502
rthumb 6.94063 -15.2389
lclavicle 1.76918e-014 -2.18663e-014
lhumerus -31.098 -3.68773 89.5497
lradius 18.898
lwrist -32.3632
lhand -5.95414 -6.95512
lfingers 7.12502
lthumb 19.8764 22.0485
rfemur -14.0668 -11.223 17.2574
rtibia 30.1097
rfoot -6.26515 15.8881
rtoes 1.00754
lfemur -17.324 16.0746 -15.6994
ltibia 46.0182
lfoot -10.8835 -0.585755
ltoes -14.8263
20
root 7.08185 19.2724 2.35441 -189.8 83.4503 -186.581
lowerback 2.1196 2.20688 5.44655
upperback 10.6947 3.30905 -0.053168
thorax 10.5287 2.33989 -2.80944
lowerneck 1.05205 -4.75267 5.03305
upperneck 18.8007 -5.40493 -3.7039
head 5.2298 -2.25216 -2.18339
rclavicle 7.49418e-014 -2.50469e-014
rhumerus -13.535 -8.17687 -86.5993
rradius 30.9204
rwrist -0.806502
rhand -19.5969 14.98
rfingers 7.12502
rthumb 6.72893 -14.8931
lclavicle 7.49418e-014 -2.50469e-014
lhumerus -30.8985 -3.4948 89.3405
lradius 18.8816
lwrist -32.2775
lhand -6.14997 -7.27848
lfingers 7.12502
lthumb 19.6882 21.7445
rfemur -13.8413 -11.2518 17.2924
rtibia 30.1877
rfoot -6.52182 16.0257
rtoes 1.21252
lfemur -17.9134 16.1093 -15.7809
ltibia 44.8406
lfoot -11.1414 -0.712259
ltoes -14.2007
21
root 7.15279 19.2732 2.36912 -190.032 83.4946 -186.781
lowerback 2.4482 2.30935 5.19252
upperback 10.889 3.50098 -0.106176
thorax 10.5576 2.42957 -2.71813
lowerneck 0.945992 -4.87241 5.07905
upperneck 18.6805 -5.58115 -3.73662
head 5.20004 -2.34359 -2.20721
rclavicle -2.46493e-014 -1.19271e-014
rhumerus -12.8869 -7.49102 -86.5846
rradius 31.3222
rwrist -1.0186
rhand -19.9206 15.388
rfingers 7.12502
rthumb 6.41649 -14.4948
lclavicle -2.46493e-014 -1.19271e-014
lhumerus -30.6203 -3.32368 89.1605
lradius 18.8549
lwrist -32.1926
lhand -6.36614 -7.55356
lfingers 7.12502
lthumb 19.4803 21.4906
rfemur -13.5854 -11.2955 17.3019
rtibia 30.2335
rfoot -6.77814 16.2052
rtoes 1.16002
lfemur -18.4202 16.0947 -15.8576
ltibia 43.6514
lfoot -11.1697 -1.03876
ltoes -14.0669
22
root 7.21948 19.2733 2.3826 -189.85 83.5189 -186.564
lowerback 2.83079 2.39327 5.00944
upperback 11.0641 3.66776 -0.164117
thorax 10.5358 2.51246 -2.67835
lowerneck 0.770325 -4.99459 5.10952
upperneck 18.7395 -5.75567 -3.75914
head 5.2384 -2.42914 -2.23091
rclavicle 1.15295e-014 -9.54166e-015
rhumerus -12.2838 -6.73917 -86.5698
rradius 31.7827
rwrist -1.33584
rhand -20.2277 15.6253
rfingers 7.12502
rthumb 6.12002 -14.2663
lclavicle 1.15295e-014 -9.54166e-015
lhumerus -30.3264 -3.03596 88.919
lradius 18.8202
lwrist -32.2721
lhand -6.59993 -7.72755
lfingers 7.12502
lthumb 19.2556 21.3392
rfemur -13.3317 -11.3158 17.3514
rtibia 30.2728
rfoot -7.0215 16.329
rtoes 1.21874
lfemur -18.874 15.9966 -15.869
ltibia 42.4525
lfoot -10.9728 -1.5158
ltoes -14.0917
23
root 7.28487 19.272 2.39517 -189.562 83.5816 -186.26
lowerback 3.18131 2.47145 4.84152
upperback 11.2515 3.82394 -0.218071
thorax 10.5474 2.59243 -2.64229
lowerneck 0.595804 -5.09314 5.09043
upperneck 18.795 -5.90332 -3.7366
head 5.27992 -2.50232 -2.23185
rclavicle 4.13472e-014 -1.11319e-014
rhumerus -11.6466 -6.03696 -86.5208
rradius 32.2319
rwrist -1.52277
rhand -20.4168 15.7914
rfingers 7.12502
rthumb 5.93746 -14.1054
lclavicle 4.13472e-014 -1.11319e-014
lhumerus -29.9734 -2.59968 88.6326
lradius 18.7779
lwrist -32.5515
lhand -6.84849 -7.94644
lfingers 7.12502
lthumb 19.0165 21.1439
rfemur -13.1245 -11.4221 17.4165
rtibia 30.3251
rfoot -7.23751 16.5519
rtoes 1.15458
lfemur -19.2565 15.8278 -15.8342
ltibia 41.2608
lfoot -10.7316 -2.0271
ltoes -13.5289
24
root 7.34899 19.2679 2.40705 -189.512 83.6643 -186.173
lowerback 3.56346 2.56291 4.66075
upperback 11.449 4.00178 -0.281625
thorax 10.5538 2.68353 -2.61036
lowerneck 0.420338 -5.19639 5.0874
upperneck 18.8609 -6.0588 -3.70495
head 5.32446 -2.57711 -2.23334
rclavicle -1.0138e-014 -3.97569e-016
rhumerus -10.9886 -5.44531 -86.4497
rradius 32.6924
rwrist -1.67158
rhand -20.5337 15.8083
rfingers 7.12502
rthumb 5.82457 -14.0916
lclavicle -1.0138e-014 -3.97569e-016
lhumerus -29.5961 -2.22944 88.3601
lradius 18.7723
lwrist -32.8582
lhand -7.15831 -8.2623
lfingers 7.12502
lthumb 18.7186 20.8571
rfemur -12.9006 -11.4131 17.4545
rtibia 30.394
rfoot -7.49032 16.6929
rtoes 1.10317
lfemur -19.5474 15.5998 -15.7942
ltibia 40.085
lfoot -10.4615 -2.52684
ltoes -13.3096
25
root 7.41153 19.2637 2.41937 -189.115 83.7706 -185.737
lowerback 3.94365 2.6465 4.51731
upperback 11.6617 4.16927 -0.348143
thorax 10.5821 2.77478 -2.60324
lowerneck 0.220385 -5.27422 5.08722
upperneck 18.9436 -6.18835 -3.63047
head 5.3813 -2.63619 -2.22251
rclavicle 3.77691e-014 -1.98785e-014
rhumerus -10.3117 -4.89774 -86.3907
rradius 33.1216
rwrist -1.77208
rhand -20.6258 15.8703
rfingers 7.12502
rthumb 5.73567 -14.0321
lclavicle 3.77691e-014 -1.98785e-014
lhumerus -29.1558 -1.75394 88.0236
lradius 18.7617
lwrist -33.3982
lhand -7.64292 -8.50279
lfingers 7.12502
lthumb 18.2524 20.6609
rfemur -12.6933 -11.3959 17.5357
rtibia 30.4777
rfoot -7.67609 16.8462
rtoes 1.2663
lfemur -19.822 15.4036 -15.6871
ltibia 38.9326
lfoot -10.1384 -3.06839
ltoes -13.2385
